<?xml version="1.0" encoding="UTF-8" standalone="no"?>
<!-- Created with Inkscape (http://www.inkscape.org/) -->

<svg
   xmlns:dc="http://purl.org/dc/elements/1.1/"
   xmlns:cc="http://creativecommons.org/ns#"
   xmlns:rdf="http://www.w3.org/1999/02/22-rdf-syntax-ns#"
   xmlns:svg="http://www.w3.org/2000/svg"
   xmlns="http://www.w3.org/2000/svg"
   xmlns:sodipodi="http://sodipodi.sourceforge.net/DTD/sodipodi-0.dtd"
   xmlns:inkscape="http://www.inkscape.org/namespaces/inkscape"
   width="527.66943"
   height="424.7373"
   id="svg4601"
   version="1.1"
   inkscape:version="0.48.3.1 r9886"
   sodipodi:docname="ottawa.svg">
  <defs
     id="defs4603" />
  <sodipodi:namedview
     id="base"
     pagecolor="#ffffff"
     bordercolor="#666666"
     borderopacity="1.0"
     inkscape:pageopacity="0.0"
     inkscape:pageshadow="2"
     inkscape:zoom="0.35"
     inkscape:cx="290.37073"
     inkscape:cy="249.98317"
     inkscape:document-units="px"
     inkscape:current-layer="layer1"
     showgrid="false"
     inkscape:window-width="1855"
     inkscape:window-height="1056"
     inkscape:window-x="65"
     inkscape:window-y="24"
     inkscape:window-maximized="1"
     fit-margin-top="0"
     fit-margin-left="0"
     fit-margin-right="0"
     fit-margin-bottom="0" />
  <metadata
     id="metadata4606">
    <rdf:RDF>
      <cc:Work
         rdf:about="">
        <dc:format>image/svg+xml</dc:format>
        <dc:type
           rdf:resource="http://purl.org/dc/dcmitype/StillImage" />
        <dc:title></dc:title>
      </cc:Work>
    </rdf:RDF>
  </metadata>
  <g
     inkscape:label="Calque 1"
     inkscape:groupmode="layer"
     id="layer1"
     transform="translate(-84.629272,-357.60805)">
    <path
       id="Carleton_x2014_Mississippi_Mills"
       d="m 293.44786,669.50549 -55.4781,86.00159 -151.456378,-115.82522 90.093388,-138.01793 0.65035,-27.74671 46.3494,-12.48486 53.53498,4.16162 52.22635,36.05828 -7.18955,28.44291 39.8221,33.29295 2.6133,9.71174 11.74994,-3.46931 8.49818,11.78477 -12.40822,19.4118 41.78108,50.29724 -48.63752,75.60144 -72.1493,-57.22031 z"
       inkscape:connector-curvature="0"
       style="fill:#0055d4;stroke:#ffffff;stroke-width:3.76821923" />
    <path
       id="Nepean_x2014_Carleton"
       d="m 540.88655,488.48288 69.52806,95.71333 -90.43446,96.04392 -14.67652,-7.62704 v 22.19271 l -63.66697,85.65544 h -8.48232 l -65.28492,-46.47011 -2.28416,-8.32324 48.30838,-74.9169 -41.13073,-50.28558 11.75787,-19.41958 -8.49818,-11.43084 -11.09562,3.12316 -3.58883,-10.76576 -4.23125,-4.14995 17.94414,-17.68493 30.67752,-2.08081 26.11714,-15.25797 19.58588,26.6927 14.35134,-13.5311 -5.21074,-12.13481 5.37333,-10.75409 0.48776,-14.38675 12.40029,-11.10024 62.05299,0.89844 z"
       inkscape:connector-curvature="0"
       style="fill:#0055d4;stroke:#ffffff;stroke-width:3.76821923" />
    <path
       id="Ottawa_West_x2014_Nepean"
       d="m 357.11087,558.5303 17.94413,-18.38112 30.67753,-2.08081 26.11714,-14.56178 -2.28416,-14.21951 -43.41092,-2.77311 -13.05857,13.86946 -30.34442,-7.63093 -14.0341,-11.10024 -6.5273,28.44291 34.92067,28.43513 z"
       inkscape:connector-curvature="0"
       style="fill:#2a7fff;stroke:#ffffff;stroke-width:3.76821923" />
    <path
       id="Ottawa_South"
       d="m 432.19071,523.16044 19.25276,27.05052 14.36721,-13.86947 -5.55178,-12.1387 5.87695,-11.10024 0.32518,-13.5311 12.40029,-11.77699 -24.16609,-28.10453 -25.13368,13.19272 -0.98346,36.05828 3.61262,14.21951 z"
       inkscape:connector-curvature="0"
       style="fill:#ff5555;stroke:#ffffff;stroke-width:3.76821923" />
    <path
       id="Ottawa_x2014_Vanier"
       d="m 454.05677,459.35155 c 0.65036,-1.73465 11.42477,-21.15035 11.42477,-21.15035 l -1.29277,-23.92736 -48.32425,37.45456 0.65035,21.15425 13.38375,-0.35005 24.15815,-13.18105 z"
       inkscape:connector-curvature="0"
       style="fill:#ffaaaa;stroke:#ffffff;stroke-width:3.76821923" />
    <path
       id="Ottawa_x2014_Orléans"
       d="m 478.21493,487.79057 63.00076,0.34616 -31.33581,-44.04315 15.66791,-21.49262 -29.702,-30.52372 -32.63255,23.23895 2.27623,22.19659 -12.08305,22.18881 24.80851,28.08898 z"
       inkscape:connector-curvature="0"
       style="fill:#2a7fff;stroke:#ffffff;stroke-width:3.76821923" />
    <path
       id="Ottawa_Centre"
       d="m 416.5228,472.87876 h 13.70892 l -0.98345,36.39665 -35.24982,-1.71909 0.32518,-19.76575 9.79095,-10.4196 12.40822,-4.49221 z"
       inkscape:connector-curvature="0"
       style="fill:#ff6600;stroke:#ffffff;stroke-width:3.76821923" />
    <path
       id="Hull_x2014_Aylmer"
       d="m 323.16572,495.76377 c 0,-1.38462 -4.55642,-36.40833 -4.55642,-36.40833 l 30.01925,-13.18105 22.53624,8.32324 6.52731,-22.53886 38.19225,19.41959 0.32517,21.15035 -12.40821,4.85393 -8.8075,10.40793 -0.65828,19.05788 h -8.48232 l -13.0665,13.19272 -30.67357,-7.63093 -18.94742,-16.64647 z"
       inkscape:connector-curvature="0"
       style="fill:#ff6600;stroke:#ffffff;stroke-width:3.76821923" />
    <path
       id="Gatineau"
       d="m 377.67227,434.38184 v -16.64647 l 12.40822,-9.70785 0.65035,-17.33489 67.2439,-31.20047 13.70892,0.69231 11.74994,40.58939 -67.89425,50.96621 -38.19226,-20.11579 0.32518,2.75756 z"
       inkscape:connector-curvature="0"
       style="fill:#d45500;stroke:#ffffff;stroke-width:3.76821923" />
  </g>
</svg>
