<?xml version="1.0" encoding="UTF-8" standalone="no"?>
<!-- Generator: Adobe Illustrator 13.0.0, SVG Export Plug-In  -->

<svg
   xmlns:dc="http://purl.org/dc/elements/1.1/"
   xmlns:cc="http://creativecommons.org/ns#"
   xmlns:rdf="http://www.w3.org/1999/02/22-rdf-syntax-ns#"
   xmlns:svg="http://www.w3.org/2000/svg"
   xmlns="http://www.w3.org/2000/svg"
   xmlns:sodipodi="http://sodipodi.sourceforge.net/DTD/sodipodi-0.dtd"
   xmlns:inkscape="http://www.inkscape.org/namespaces/inkscape"
   version="1.1"
   x="0px"
   y="0px"
   width="706px"
   height="246px"
   viewBox="-0.956 0 706 246"
   enable-background="new -0.956 0 706 246"
   xml:space="preserve"
   id="svg2"
   inkscape:version="0.48.2 r9819"
   sodipodi:docname="Canada_2011_Federal_Election_seats.svg"><metadata
   id="metadata631"><rdf:RDF><cc:Work
       rdf:about=""><dc:format>image/svg+xml</dc:format><dc:type
         rdf:resource="http://purl.org/dc/dcmitype/StillImage" /><dc:title></dc:title></cc:Work></rdf:RDF></metadata><sodipodi:namedview
   pagecolor="#ffffff"
   bordercolor="#666666"
   borderopacity="1"
   objecttolerance="10"
   gridtolerance="10"
   guidetolerance="10"
   inkscape:pageopacity="0"
   inkscape:pageshadow="2"
   inkscape:window-width="1440"
   inkscape:window-height="825"
   id="namedview629"
   showgrid="false"
   inkscape:zoom="1.8342776"
   inkscape:cx="130.8377"
   inkscape:cy="120.88921"
   inkscape:window-x="0"
   inkscape:window-y="24"
   inkscape:window-maximized="1"
   inkscape:current-layer="svg2" />
<defs
   id="defs4"><rect
     id="bq"
     width="17"
     height="15"
     fill="lightskyblue" /><rect
     id="cpc"
     width="17"
     height="15"
     fill="cornflowerblue" /><rect
     id="lib"
     width="17"
     height="15"
     fill="lightcoral" /><rect
     id="grn"
     width="17"
     height="15"
     fill="#2F873E" /><rect
     id="ndp"
     width="17"
     height="15"
     fill="sandybrown" /></defs>

<rect
   height="15"
   width="17"
   id="use13"
   x="18"
   y="8"
   style="fill:#dd55ff;stroke:none" />
<rect
   height="15"
   width="17"
   id="use15"
   x="42"
   y="8"
   style="fill:#dd55ff;stroke:none" />
<rect
   height="15"
   width="17"
   id="use17"
   x="60"
   y="8"
   style="fill:#dd55ff;stroke:none" />
<rect
   height="15"
   width="17"
   id="use19"
   x="84"
   y="8"
   style="fill:#dd55ff;stroke:none" />
<rect
   height="15"
   width="17"
   id="use21"
   x="102"
   y="8"
   style="fill:#dd55ff;stroke:none" />
<rect
   height="15"
   width="17"
   id="use23"
   x="126"
   y="8"
   style="fill:#dd55ff;stroke:none" />
<rect
   height="15"
   width="17"
   id="use25"
   x="144"
   y="8"
   style="fill:#dd55ff;stroke:none" />
<rect
   height="15"
   width="17"
   id="use27"
   x="168"
   y="8"
   style="fill:#dd55ff;stroke:none" />
<rect
   height="15"
   width="17"
   id="use29"
   x="186"
   y="8"
   style="fill:#dd55ff;stroke:none" />
<rect
   height="15"
   width="17"
   id="use31"
   x="210"
   y="8"
   style="fill:#dd55ff;stroke:none" />
<rect
   height="15"
   width="17"
   id="use33"
   x="228"
   y="8"
   style="fill:#dd55ff;stroke:none" />
<rect
   height="15"
   width="17"
   id="use35"
   x="252"
   y="8"
   style="fill:#dd55ff;stroke:none" />
<rect
   height="15"
   width="17"
   id="use37"
   x="270"
   y="8"
   style="fill:#dd55ff;stroke:none" />
<rect
   height="15"
   width="17"
   id="use39"
   x="294"
   y="8"
   style="fill:#dd55ff;stroke:none" />
<rect
   height="15"
   width="17"
   id="use41"
   x="312"
   y="8"
   style="fill:#808000;stroke:none" />
<rect
   height="15"
   width="17"
   id="use43"
   x="336"
   y="8"
   style="fill:#808000;stroke:none" />
<rect
   height="15"
   width="17"
   id="use45"
   x="354"
   y="8"
   style="fill:#808000;stroke:none" />
<rect
   height="15"
   width="17"
   id="use47"
   x="378"
   y="8"
   style="fill:#808000;stroke:none" />
<rect
   height="15"
   width="17"
   id="use49"
   x="396"
   y="8"
   style="fill:#808000;stroke:none" />
<rect
   height="15"
   width="17"
   id="use51"
   x="420"
   y="8"
   style="fill:#808000;fill-opacity:1;stroke:none" />
<rect
   height="15"
   width="17"
   id="use53"
   x="438"
   y="8"
   style="fill:#808000;stroke:none" />
<rect
   height="15"
   width="17"
   id="use55"
   x="462"
   y="8"
   style="fill:#808000;stroke:none" />
<rect
   height="15"
   width="17"
   id="use57"
   x="480"
   y="8"
   style="fill:#808000" />
<rect
   height="15"
   width="17"
   id="use59"
   x="504"
   y="8"
   style="fill:#808000" />
<rect
   height="15"
   width="17"
   id="use61"
   x="522"
   y="8"
   style="fill:#808000" />
<rect
   height="15"
   width="17"
   id="use63"
   x="546"
   y="8"
   style="fill:#808000" />
<rect
   height="15"
   width="17"
   id="use65"
   x="564"
   y="8"
   style="fill:#808000" />
<rect
   height="15"
   width="17"
   id="use67"
   x="588"
   y="8"
   style="fill:#808000;fill-opacity:1" />
<rect
   height="15"
   width="17"
   id="use69"
   x="606"
   y="8"
   style="fill:#808000" />
<rect
   height="15"
   width="17"
   id="use71"
   x="630"
   y="8"
   style="fill:#808000" />
<rect
   height="15"
   width="17"
   id="use73"
   x="648"
   y="8"
   style="fill:#808000" />


<rect
   height="15"
   width="17"
   id="use75"
   x="18"
   y="29"
   style="fill:#dd55ff;stroke:none" />
<rect
   height="15"
   width="17"
   id="use77"
   x="42"
   y="29"
   style="fill:#dd55ff;stroke:none" />
<rect
   height="15"
   width="17"
   id="use79"
   x="60"
   y="29"
   style="fill:#dd55ff;stroke:none" />
<rect
   height="15"
   width="17"
   id="use81"
   x="84"
   y="29"
   style="fill:#dd55ff;stroke:none" />
<rect
   height="15"
   width="17"
   id="use83"
   x="102"
   y="29"
   style="fill:#dd55ff;stroke:none" />
<rect
   height="15"
   width="17"
   id="use85"
   x="126"
   y="29"
   style="fill:#dd55ff;stroke:none" />
<rect
   height="15"
   width="17"
   id="use87"
   x="144"
   y="29"
   style="fill:#dd55ff;stroke:none" />
<rect
   height="15"
   width="17"
   id="use89"
   x="168"
   y="29"
   style="fill:#dd55ff;stroke:none" />
<rect
   height="15"
   width="17"
   id="use91"
   x="186"
   y="29"
   style="fill:#dd55ff;stroke:none" />
<rect
   height="15"
   width="17"
   id="use93"
   x="210"
   y="29"
   style="fill:#dd55ff;stroke:none" />
<rect
   height="15"
   width="17"
   id="use95"
   x="228"
   y="29"
   style="fill:#dd55ff;stroke:none" />
<rect
   height="15"
   width="17"
   id="use97"
   x="252"
   y="29"
   style="fill:#dd55ff;stroke:none" />
<rect
   height="15"
   width="17"
   id="use99"
   x="270"
   y="29"
   style="fill:#dd55ff;stroke:none" />
<rect
   height="15"
   width="17"
   id="use101"
   x="294"
   y="29"
   style="fill:#dd55ff;stroke:none" />
<rect
   height="15"
   width="17"
   id="use103"
   x="312"
   y="29"
   style="fill:#808000;stroke:none" />
<rect
   height="15"
   width="17"
   id="use105"
   x="336"
   y="29"
   style="fill:#808000;stroke:none" />
<rect
   height="15"
   width="17"
   id="use107"
   x="354"
   y="29"
   style="fill:#808000;stroke:none" />
<rect
   height="15"
   width="17"
   id="use109"
   x="378"
   y="29"
   style="fill:#808000;stroke:none" />
<rect
   height="15"
   width="17"
   id="use111"
   x="396"
   y="29"
   style="fill:#808000;stroke:none" />
<rect
   height="15"
   width="17"
   id="use113"
   x="420"
   y="29"
   style="fill:#808000;stroke:none" />
<rect
   height="15"
   width="17"
   id="use115"
   x="438"
   y="29"
   style="fill:#808000;stroke:none" />
<rect
   height="15"
   width="17"
   id="use117"
   x="462"
   y="29"
   style="fill:#808000;stroke:none" />
<rect
   height="15"
   width="17"
   id="use119"
   x="480"
   y="29"
   style="fill:#808000" />
<rect
   height="15"
   width="17"
   id="use121"
   x="504"
   y="29"
   style="fill:#808000" />
<rect
   height="15"
   width="17"
   id="use123"
   x="522"
   y="29"
   style="fill:#808000" />
<rect
   height="15"
   width="17"
   id="use125"
   x="546"
   y="29"
   style="fill:#808000" />
<rect
   height="15"
   width="17"
   id="use127"
   x="564"
   y="29"
   style="fill:#808000" />
<rect
   height="15"
   width="17"
   id="use129"
   x="588"
   y="29"
   style="fill:#808000" />
<rect
   height="15"
   width="17"
   id="use131"
   x="606"
   y="29"
   style="fill:#808000" />
<rect
   height="15"
   width="17"
   id="use133"
   x="630"
   y="29"
   style="fill:#808000" />
<rect
   height="15"
   width="17"
   id="use135"
   x="648"
   y="29"
   style="fill:#808000" />
<rect
   height="15"
   width="17"
   id="use137"
   x="672"
   y="29"
   style="fill:#808000" />


<!-- <use x="18" y="50" xlink:href="#ndp"/> -->
<rect
   height="15"
   width="17"
   id="use139"
   x="42"
   y="50"
   style="fill:#dd55ff;stroke:none" />
<rect
   height="15"
   width="17"
   id="use141"
   x="60"
   y="50"
   style="fill:#dd55ff;stroke:none" />
<rect
   height="15"
   width="17"
   id="use143"
   x="84"
   y="50"
   style="fill:#dd55ff;stroke:none" />
<rect
   height="15"
   width="17"
   id="use145"
   x="102"
   y="50"
   style="fill:#dd55ff;stroke:none" />
<rect
   height="15"
   width="17"
   id="use147"
   x="126"
   y="50"
   style="fill:#dd55ff;stroke:none" />
<rect
   height="15"
   width="17"
   id="use149"
   x="144"
   y="50"
   style="fill:#dd55ff;stroke:none" />
<rect
   height="15"
   width="17"
   id="use151"
   x="168"
   y="50"
   style="fill:#dd55ff;stroke:none" />
<rect
   height="15"
   width="17"
   id="use153"
   x="186"
   y="50"
   style="fill:#dd55ff;stroke:none" />
<rect
   height="15"
   width="17"
   id="use155"
   x="210"
   y="50"
   style="fill:#dd55ff;stroke:none" />
<rect
   height="15"
   width="17"
   id="use157"
   x="228"
   y="50"
   style="fill:#dd55ff;stroke:none" />
<rect
   height="15"
   width="17"
   id="use159"
   x="252"
   y="50"
   style="fill:#dd55ff;stroke:none" />
<rect
   height="15"
   width="17"
   id="use161"
   x="270"
   y="50"
   style="fill:#dd55ff;stroke:none" />
<rect
   height="15"
   width="17"
   id="use163"
   x="294"
   y="50"
   style="fill:#dd55ff;stroke:none" />
<rect
   height="15"
   width="17"
   id="use165"
   x="312"
   y="50"
   style="fill:#808000;stroke:none" />
<rect
   height="15"
   width="17"
   id="use167"
   x="336"
   y="50"
   style="fill:#808000;stroke:none" />
<rect
   height="15"
   width="17"
   id="use169"
   x="354"
   y="50"
   style="fill:#808000;stroke:none" />
<rect
   height="15"
   width="17"
   id="use171"
   x="378"
   y="50"
   style="fill:#808000;stroke:none" />
<rect
   height="15"
   width="17"
   id="use173"
   x="396"
   y="50"
   style="fill:#808000;stroke:none" />
<rect
   height="15"
   width="17"
   id="use175"
   x="420"
   y="50"
   style="fill:#808000;stroke:none" />
<rect
   height="15"
   width="17"
   id="use177"
   x="438"
   y="50"
   style="fill:#808000;stroke:none" />
<rect
   height="15"
   width="17"
   id="use179"
   x="462"
   y="50"
   style="fill:#808000;stroke:none" />
<rect
   height="15"
   width="17"
   id="use181"
   x="480"
   y="50"
   style="fill:#808000" />
<rect
   height="15"
   width="17"
   id="use183"
   x="504"
   y="50"
   style="fill:#808000" />
<rect
   height="15"
   width="17"
   id="use185"
   x="522"
   y="50"
   style="fill:#808000" />
<rect
   height="15"
   width="17"
   id="use187"
   x="546"
   y="50"
   style="fill:#808000" />
<rect
   height="15"
   width="17"
   id="use189"
   x="564"
   y="50"
   style="fill:#808000" />
<rect
   height="15"
   width="17"
   id="use191"
   x="588"
   y="50"
   style="fill:#808000" />
<rect
   height="15"
   width="17"
   id="use193"
   x="606"
   y="50"
   style="fill:#808000" />
<rect
   height="15"
   width="17"
   id="use195"
   x="630"
   y="50"
   style="fill:#808000" />
<rect
   height="15"
   width="17"
   id="use197"
   x="648"
   y="50"
   style="fill:#808000" />
<rect
   height="15"
   width="17"
   id="use199"
   x="672"
   y="50"
   style="fill:#808000" />


<!-- <use x="18" y="71" xlink:href="#ndp"/> -->
<rect
   height="15"
   width="17"
   id="use201"
   x="42"
   y="71"
   style="fill:#dd55ff;stroke:none" />
<rect
   height="15"
   width="17"
   id="use203"
   x="60"
   y="71"
   style="fill:#dd55ff;stroke:none" />
<rect
   height="15"
   width="17"
   id="use205"
   x="84"
   y="71"
   style="fill:#dd55ff;stroke:none" />
<rect
   height="15"
   width="17"
   id="use207"
   x="102"
   y="71"
   style="fill:#dd55ff;stroke:none" />
<rect
   height="15"
   width="17"
   id="use209"
   x="126"
   y="71"
   style="fill:#dd55ff;stroke:none" />
<rect
   height="15"
   width="17"
   id="use211"
   x="144"
   y="71"
   style="fill:#dd55ff;stroke:none" />
<rect
   height="15"
   width="17"
   id="use213"
   x="168"
   y="71"
   style="fill:#dd55ff;stroke:none" />
<rect
   height="15"
   width="17"
   id="use215"
   x="186"
   y="71"
   style="fill:#dd55ff;stroke:none" />
<rect
   height="15"
   width="17"
   id="use217"
   x="210"
   y="71"
   style="fill:#dd55ff;stroke:none" />
<rect
   height="15"
   width="17"
   id="use219"
   x="228"
   y="71"
   style="fill:#dd55ff;stroke:none" />
<rect
   height="15"
   width="17"
   id="use221"
   x="252"
   y="71"
   style="fill:#dd55ff;stroke:none" />
<rect
   height="15"
   width="17"
   id="use223"
   x="270"
   y="71"
   style="fill:#dd55ff;stroke:none" />
<rect
   height="15"
   width="17"
   id="use225"
   x="294"
   y="71"
   style="fill:#dd55ff;stroke:none" />
<rect
   height="15"
   width="17"
   id="use227"
   x="312"
   y="71"
   style="fill:#808000;stroke:none" />
<rect
   height="15"
   width="17"
   id="use229"
   x="336"
   y="71"
   style="fill:#808000;stroke:none" />
<rect
   height="15"
   width="17"
   id="use231"
   x="354"
   y="71"
   style="fill:#808000;stroke:none" />
<rect
   height="15"
   width="17"
   id="use233"
   x="378"
   y="71"
   style="fill:#808000;stroke:none" />
<rect
   height="15"
   width="17"
   id="use235"
   x="396"
   y="71"
   style="fill:#808000;stroke:none" />
<rect
   height="15"
   width="17"
   id="use237"
   x="420"
   y="71"
   style="fill:#808000;stroke:none" />
<rect
   height="15"
   width="17"
   id="use239"
   x="438"
   y="71"
   style="fill:#808000;stroke:none" />
<rect
   height="15"
   width="17"
   id="use241"
   x="462"
   y="71"
   style="fill:#808000;stroke:none" />
<rect
   height="15"
   width="17"
   id="use243"
   x="480"
   y="71"
   style="fill:#808000" />
<rect
   height="15"
   width="17"
   id="use245"
   x="504"
   y="71"
   style="fill:#808000" />
<rect
   height="15"
   width="17"
   id="use247"
   x="522"
   y="71"
   style="fill:#808000" />
<rect
   height="15"
   width="17"
   id="use249"
   x="546"
   y="71"
   style="fill:#808000" />
<rect
   height="15"
   width="17"
   id="use251"
   x="564"
   y="71"
   style="fill:#808000" />
<rect
   height="15"
   width="17"
   id="use253"
   x="588"
   y="71"
   style="fill:#808000" />
<rect
   height="15"
   width="17"
   id="use255"
   x="606"
   y="71"
   style="fill:#808000" />
<rect
   height="15"
   width="17"
   id="use257"
   x="630"
   y="71"
   style="fill:#808000" />
<rect
   height="15"
   width="17"
   id="use259"
   x="648"
   y="71"
   style="fill:#808000" />
<rect
   height="15"
   width="17"
   id="use261"
   x="672"
   y="71"
   style="fill:#808000" />


<rect
   height="15"
   width="17"
   id="use263"
   x="84"
   y="92"
   style="fill:#dd55ff;stroke:none" />
<rect
   height="15"
   width="17"
   id="use265"
   x="102"
   y="92"
   style="fill:#dd55ff;stroke:none" />
<rect
   height="15"
   width="17"
   id="use267"
   x="126"
   y="92"
   style="fill:#dd55ff;stroke:none" />
<rect
   height="15"
   width="17"
   id="use269"
   x="144"
   y="92"
   style="fill:#dd55ff;stroke:none" />
<rect
   height="15"
   width="17"
   id="use271"
   x="168"
   y="92"
   style="fill:#dd55ff;stroke:none" />
<rect
   height="15"
   width="17"
   id="use273"
   x="186"
   y="92"
   style="fill:#dd55ff;stroke:none" />
<rect
   height="15"
   width="17"
   id="use275"
   x="210"
   y="92"
   style="fill:#dd55ff;stroke:none" />
<rect
   height="15"
   width="17"
   id="use277"
   x="228"
   y="92"
   style="fill:#dd55ff;stroke:none" />
<rect
   height="15"
   width="17"
   id="use279"
   x="252"
   y="92"
   style="fill:#dd55ff;stroke:none" />
<rect
   height="15"
   width="17"
   id="use281"
   x="270"
   y="92"
   style="fill:#dd55ff;stroke:none" />
<rect
   height="15"
   width="17"
   id="use283"
   x="294"
   y="92"
   style="fill:#dd55ff;stroke:none" />
<rect
   height="15"
   width="17"
   id="use285"
   x="312"
   y="92"
   style="fill:#808000;stroke:none" />
<rect
   height="15"
   width="17"
   id="use287"
   x="336"
   y="92"
   style="fill:#808000;stroke:none" />
<rect
   height="15"
   width="17"
   id="use289"
   x="354"
   y="92"
   style="fill:#808000;fill-opacity:1;stroke:none" />
<rect
   height="15"
   width="17"
   id="use291"
   x="378"
   y="92"
   style="fill:#808000;stroke:none" />
<rect
   height="15"
   width="17"
   id="use293"
   x="396"
   y="92"
   style="fill:#808000;stroke:none" />
<rect
   height="15"
   width="17"
   id="use295"
   x="420"
   y="92"
   style="fill:#808000;stroke:none" />
<rect
   height="15"
   width="17"
   id="use297"
   x="438"
   y="92"
   style="fill:#808000;stroke:none" />
<rect
   height="15"
   width="17"
   id="use299"
   x="462"
   y="92"
   style="fill:#808000;stroke:none" />
<rect
   height="15"
   width="17"
   id="use301"
   x="480"
   y="92"
   style="fill:#808000" />
<rect
   height="15"
   width="17"
   id="use303"
   x="504"
   y="92"
   style="fill:#808000" />
<rect
   height="15"
   width="17"
   id="use305"
   x="522"
   y="92"
   style="fill:#808000" />
<rect
   height="15"
   width="17"
   id="use307"
   x="546"
   y="92"
   style="fill:#808000" />
<rect
   height="15"
   width="17"
   id="use309"
   x="564"
   y="92"
   style="fill:#808000" />
<rect
   height="15"
   width="17"
   id="use311"
   x="588"
   y="92"
   style="fill:#808000" />
<rect
   height="15"
   width="17"
   id="use313"
   x="606"
   y="92"
   style="fill:#808000" />
<rect
   height="15"
   width="17"
   id="use315"
   x="630"
   y="92"
   style="fill:#808000" />
<rect
   height="15"
   width="17"
   id="use317"
   x="648"
   y="92"
   style="fill:#808000" />
<rect
   height="15"
   width="17"
   id="use319"
   x="672"
   y="92"
   style="fill:#808000" />


<!-- <use x="18" y="113" xlink:href="#cpc"/> -->


<rect
   height="15"
   width="17"
   id="use321"
   x="84"
   y="133"
   style="fill:#dd55ff" />
<rect
   height="15"
   width="17"
   id="use323"
   x="102"
   y="133"
   style="fill:#dd55ff" />
<rect
   height="15"
   width="17"
   id="use325"
   x="126"
   y="133"
   style="fill:#dd55ff" />
<rect
   height="15"
   width="17"
   id="use327"
   x="144"
   y="133"
   style="fill:#dd55ff" />
<rect
   height="15"
   width="17"
   id="use329"
   x="168"
   y="133"
   style="fill:#dd55ff" />
<rect
   height="15"
   width="17"
   id="use331"
   x="186"
   y="133"
   style="fill:#dd55ff" />
<rect
   height="15"
   width="17"
   id="use333"
   x="210"
   y="133"
   style="fill:#dd55ff" />
<rect
   height="15"
   width="17"
   id="use335"
   x="228"
   y="133"
   style="fill:#dd55ff" />
<rect
   height="15"
   width="17"
   id="use337"
   x="252"
   y="133"
   style="fill:#dd55ff" />
<rect
   height="15"
   width="17"
   id="use339"
   x="270"
   y="133"
   style="fill:#dd55ff" />
<rect
   height="15"
   width="17"
   id="use341"
   x="294"
   y="133"
   style="fill:#dd55ff" />
<rect
   height="15"
   width="17"
   id="use343"
   x="312"
   y="133"
   style="fill:#dd55ff" />
<rect
   height="15"
   width="17"
   id="use345"
   x="336"
   y="133"
   style="fill:#dd55ff" />
<rect
   height="15"
   width="17"
   id="use347"
   x="354"
   y="133"
   style="fill:#dd55ff" />
<rect
   height="15"
   width="17"
   id="use349"
   x="378"
   y="133"
   style="fill:#dd55ff" />
<rect
   height="15"
   width="17"
   id="use351"
   x="396"
   y="133"
   style="fill:#dd55ff" />
<rect
   height="15"
   width="17"
   id="use353"
   x="420"
   y="133"
   style="fill:#dd55ff" />
<rect
   height="15"
   width="17"
   id="use355"
   x="438"
   y="133"
   style="fill:#dd55ff" />
<rect
   height="15"
   width="17"
   id="use357"
   x="462"
   y="133"
   style="fill:#dd55ff" />
<rect
   height="15"
   width="17"
   id="use359"
   x="480"
   y="133"
   style="fill:#dd55ff" />
<rect
   height="15"
   width="17"
   id="use361"
   x="504"
   y="133"
   style="fill:#dd55ff" />
<rect
   height="15"
   width="17"
   id="use363"
   x="522"
   y="133"
   style="fill:#dd55ff" />
<rect
   height="15"
   width="17"
   id="use365"
   x="546"
   y="133"
   style="fill:#dd55ff" />
<rect
   height="15"
   width="17"
   id="use367"
   x="564"
   y="133"
   style="fill:#dd55ff" />
<rect
   height="15"
   width="17"
   id="use369"
   x="588"
   y="133"
   style="fill:#dd55ff" />
<rect
   height="15"
   width="17"
   id="use371"
   x="606"
   y="133"
   style="fill:#dd55ff" />
<rect
   height="15"
   width="17"
   id="use373"
   x="630"
   y="133"
   style="fill:#dd55ff" />
<rect
   height="15"
   width="17"
   id="use375"
   x="648"
   y="133"
   style="fill:#dd55ff" />
<rect
   height="15"
   width="17"
   id="use377"
   x="672"
   y="133"
   style="fill:#dd55ff" />


<!-- <use x="18" y="153" xlink:href="#cpc"/> -->
<rect
   height="15"
   width="17"
   id="use379"
   x="42"
   y="153"
   style="fill:#dd55ff" />
<rect
   height="15"
   width="17"
   id="use381"
   x="60"
   y="153"
   style="fill:#dd55ff" />
<rect
   height="15"
   width="17"
   id="use383"
   x="84"
   y="153"
   style="fill:#dd55ff" />
<rect
   height="15"
   width="17"
   id="use385"
   x="102"
   y="153"
   style="fill:#dd55ff" />
<rect
   height="15"
   width="17"
   id="use387"
   x="126"
   y="153"
   style="fill:#dd55ff" />
<rect
   height="15"
   width="17"
   id="use389"
   x="144"
   y="153"
   style="fill:#dd55ff" />
<rect
   height="15"
   width="17"
   id="use391"
   x="168"
   y="153"
   style="fill:#dd55ff" />
<rect
   height="15"
   width="17"
   id="use393"
   x="186"
   y="153"
   style="fill:#dd55ff" />
<rect
   height="15"
   width="17"
   id="use395"
   x="210"
   y="153"
   style="fill:#dd55ff" />
<rect
   height="15"
   width="17"
   id="use397"
   x="228"
   y="153"
   style="fill:#dd55ff" />
<rect
   height="15"
   width="17"
   id="use399"
   x="252"
   y="153"
   style="fill:#dd55ff" />
<rect
   height="15"
   width="17"
   id="use401"
   x="270"
   y="153"
   style="fill:#dd55ff" />
<rect
   height="15"
   width="17"
   id="use403"
   x="294"
   y="153"
   style="fill:#dd55ff" />
<rect
   height="15"
   width="17"
   id="use405"
   x="312"
   y="153"
   style="fill:#dd55ff" />
<rect
   height="15"
   width="17"
   id="use407"
   x="336"
   y="153"
   style="fill:#dd55ff" />
<rect
   height="15"
   width="17"
   id="use409"
   x="354"
   y="153"
   style="fill:#dd55ff" />
<rect
   height="15"
   width="17"
   id="use411"
   x="378"
   y="153"
   style="fill:#dd55ff" />
<rect
   height="15"
   width="17"
   id="use413"
   x="396"
   y="153"
   style="fill:#dd55ff" />
<rect
   height="15"
   width="17"
   id="use415"
   x="420"
   y="153"
   style="fill:#dd55ff" />
<rect
   height="15"
   width="17"
   id="use417"
   x="438"
   y="153"
   style="fill:#dd55ff" />
<rect
   height="15"
   width="17"
   id="use419"
   x="462"
   y="153"
   style="fill:#dd55ff" />
<rect
   height="15"
   width="17"
   id="use421"
   x="480"
   y="153"
   style="fill:#dd55ff" />
<rect
   height="15"
   width="17"
   id="use423"
   x="504"
   y="153"
   style="fill:#dd55ff" />
<rect
   height="15"
   width="17"
   id="use425"
   x="522"
   y="153"
   style="fill:#dd55ff" />
<rect
   height="15"
   width="17"
   id="use427"
   x="546"
   y="153"
   style="fill:#dd55ff" />
<rect
   height="15"
   width="17"
   id="use429"
   x="564"
   y="153"
   style="fill:#dd55ff" />
<rect
   height="15"
   width="17"
   id="use431"
   x="588"
   y="153"
   style="fill:#dd55ff" />
<rect
   height="15"
   width="17"
   id="use433"
   x="606"
   y="153"
   style="fill:#dd55ff" />
<rect
   height="15"
   width="17"
   id="use435"
   x="630"
   y="153"
   style="fill:#dd55ff" />
<rect
   height="15"
   width="17"
   id="use437"
   x="648"
   y="153"
   style="fill:#dd55ff" />
<rect
   height="15"
   width="17"
   id="use439"
   x="672"
   y="153"
   style="fill:#dd55ff" />


<!-- <use x="18" y="174" xlink:href="#cpc"/> -->
<rect
   height="15"
   width="17"
   id="use441"
   x="42"
   y="174"
   style="fill:#dd55ff" />
<rect
   height="15"
   width="17"
   id="use443"
   x="60"
   y="174"
   style="fill:#dd55ff" />
<rect
   height="15"
   width="17"
   id="use445"
   x="84"
   y="174"
   style="fill:#dd55ff" />
<rect
   height="15"
   width="17"
   id="use447"
   x="102"
   y="174"
   style="fill:#dd55ff" />
<rect
   height="15"
   width="17"
   id="use449"
   x="126"
   y="174"
   style="fill:#dd55ff" />
<rect
   height="15"
   width="17"
   id="use451"
   x="144"
   y="174"
   style="fill:#dd55ff" />
<rect
   height="15"
   width="17"
   id="use453"
   x="168"
   y="174"
   style="fill:#dd55ff" />
<rect
   height="15"
   width="17"
   id="use455"
   x="186"
   y="174"
   style="fill:#dd55ff" />
<rect
   height="15"
   width="17"
   id="use457"
   x="210"
   y="174"
   style="fill:#dd55ff" />
<rect
   height="15"
   width="17"
   id="use459"
   x="228"
   y="174"
   style="fill:#dd55ff" />
<rect
   height="15"
   width="17"
   id="use461"
   x="252"
   y="174"
   style="fill:#dd55ff" />
<rect
   height="15"
   width="17"
   id="use463"
   x="270"
   y="174"
   style="fill:#dd55ff" />
<rect
   height="15"
   width="17"
   id="use465"
   x="294"
   y="174"
   style="fill:#dd55ff" />
<rect
   height="15"
   width="17"
   id="use467"
   x="312"
   y="174"
   style="fill:#dd55ff" />
<rect
   height="15"
   width="17"
   id="use469"
   x="336"
   y="174"
   style="fill:#dd55ff" />
<rect
   height="15"
   width="17"
   id="use471"
   x="354"
   y="174"
   style="fill:#dd55ff" />
<rect
   height="15"
   width="17"
   id="use473"
   x="378"
   y="174"
   style="fill:#dd55ff" />
<rect
   height="15"
   width="17"
   id="use475"
   x="396"
   y="174"
   style="fill:#dd55ff" />
<rect
   height="15"
   width="17"
   id="use477"
   x="420"
   y="174"
   style="fill:#dd55ff" />
<rect
   height="15"
   width="17"
   id="use479"
   x="438"
   y="174"
   style="fill:#dd55ff" />
<rect
   height="15"
   width="17"
   id="use481"
   x="462"
   y="174"
   style="fill:#dd55ff" />
<rect
   height="15"
   width="17"
   id="use483"
   x="480"
   y="174"
   style="fill:#dd55ff" />
<rect
   height="15"
   width="17"
   id="use485"
   x="504"
   y="174"
   style="fill:#dd55ff" />
<rect
   height="15"
   width="17"
   id="use487"
   x="522"
   y="174"
   style="fill:#dd55ff" />
<rect
   height="15"
   width="17"
   id="use489"
   x="546"
   y="174"
   style="fill:#dd55ff" />
<rect
   height="15"
   width="17"
   id="use491"
   x="564"
   y="174"
   style="fill:#dd55ff" />
<rect
   height="15"
   width="17"
   id="use493"
   x="588"
   y="174"
   style="fill:#dd55ff" />
<rect
   height="15"
   width="17"
   id="use495"
   x="606"
   y="174"
   style="fill:#dd55ff" />
<rect
   height="15"
   width="17"
   id="use497"
   x="630"
   y="174"
   style="fill:#dd55ff" />
<rect
   height="15"
   width="17"
   id="use499"
   x="648"
   y="174"
   style="fill:#dd55ff" />
<rect
   height="15"
   width="17"
   id="use501"
   x="672"
   y="174"
   style="fill:#dd55ff" />


<rect
   height="15"
   width="17"
   id="use503"
   x="18"
   y="195"
   style="fill:#dd55ff" />
<rect
   height="15"
   width="17"
   id="use505"
   x="42"
   y="195"
   style="fill:#dd55ff" />
<rect
   height="15"
   width="17"
   id="use507"
   x="60"
   y="195"
   style="fill:#dd55ff" />
<rect
   height="15"
   width="17"
   id="use509"
   x="84"
   y="195"
   style="fill:#dd55ff" />
<rect
   height="15"
   width="17"
   id="use511"
   x="102"
   y="195"
   style="fill:#dd55ff" />
<rect
   height="15"
   width="17"
   id="use513"
   x="126"
   y="195"
   style="fill:#dd55ff" />
<rect
   height="15"
   width="17"
   id="use515"
   x="144"
   y="195"
   style="fill:#dd55ff" />
<rect
   height="15"
   width="17"
   id="use517"
   x="168"
   y="195"
   style="fill:#dd55ff" />
<rect
   height="15"
   width="17"
   id="use519"
   x="186"
   y="195"
   style="fill:#dd55ff" />
<rect
   height="15"
   width="17"
   id="use521"
   x="210"
   y="195"
   style="fill:#dd55ff" />
<rect
   height="15"
   width="17"
   id="use523"
   x="228"
   y="195"
   style="fill:#dd55ff" />
<rect
   height="15"
   width="17"
   id="use525"
   x="252"
   y="195"
   style="fill:#dd55ff" />
<rect
   height="15"
   width="17"
   id="use527"
   x="270"
   y="195"
   style="fill:#dd55ff" />
<rect
   height="15"
   width="17"
   id="use529"
   x="294"
   y="195"
   style="fill:#dd55ff" />
<rect
   height="15"
   width="17"
   id="use531"
   x="312"
   y="195"
   style="fill:#dd55ff" />
<rect
   height="15"
   width="17"
   id="use533"
   x="336"
   y="195"
   style="fill:#dd55ff" />
<rect
   height="15"
   width="17"
   id="use535"
   x="354"
   y="195"
   style="fill:#dd55ff" />
<rect
   height="15"
   width="17"
   id="use537"
   x="378"
   y="195"
   style="fill:#dd55ff" />
<rect
   height="15"
   width="17"
   id="use539"
   x="396"
   y="195"
   style="fill:#dd55ff" />
<rect
   height="15"
   width="17"
   id="use541"
   x="420"
   y="195"
   style="fill:#dd55ff" />
<rect
   height="15"
   width="17"
   id="use543"
   x="438"
   y="195"
   style="fill:#dd55ff" />
<rect
   height="15"
   width="17"
   id="use545"
   x="462"
   y="195"
   style="fill:#dd55ff" />
<rect
   height="15"
   width="17"
   id="use547"
   x="480"
   y="195"
   style="fill:#dd55ff" />
<rect
   height="15"
   width="17"
   id="use549"
   x="504"
   y="195"
   style="fill:#dd55ff" />
<rect
   height="15"
   width="17"
   id="use551"
   x="522"
   y="195"
   style="fill:#dd55ff" />
<rect
   height="15"
   width="17"
   id="use553"
   x="546"
   y="195"
   style="fill:#dd55ff" />
<rect
   height="15"
   width="17"
   id="use555"
   x="564"
   y="195"
   style="fill:#dd55ff" />
<rect
   height="15"
   width="17"
   id="use557"
   x="588"
   y="195"
   style="fill:#dd55ff" />
<rect
   height="15"
   width="17"
   id="use559"
   x="606"
   y="195"
   style="fill:#dd55ff" />
<rect
   height="15"
   width="17"
   id="use561"
   x="630"
   y="195"
   style="fill:#dd55ff" />
<rect
   height="15"
   width="17"
   id="use563"
   x="648"
   y="195"
   style="fill:#dd55ff" />
<rect
   height="15"
   width="17"
   id="use565"
   x="672"
   y="195"
   style="fill:#dd55ff" />


<rect
   height="15"
   width="17"
   id="use567"
   x="18"
   y="216"
   style="fill:#dd55ff" />
<rect
   height="15"
   width="17"
   id="use569"
   x="42"
   y="216"
   style="fill:#dd55ff" />
<rect
   height="15"
   width="17"
   id="use571"
   x="60"
   y="216"
   style="fill:#dd55ff" />
<rect
   height="15"
   width="17"
   id="use573"
   x="84"
   y="216"
   style="fill:#dd55ff" />
<rect
   height="15"
   width="17"
   id="use575"
   x="102"
   y="216"
   style="fill:#dd55ff" />
<rect
   height="15"
   width="17"
   id="use577"
   x="126"
   y="216"
   style="fill:#dd55ff" />
<rect
   height="15"
   width="17"
   id="use579"
   x="144"
   y="216"
   style="fill:#dd55ff" />
<rect
   height="15"
   width="17"
   id="use581"
   x="168"
   y="216"
   style="fill:#dd55ff" />
<rect
   height="15"
   width="17"
   id="use583"
   x="186"
   y="216"
   style="fill:#dd55ff" />
<rect
   height="15"
   width="17"
   id="use585"
   x="210"
   y="216"
   style="fill:#dd55ff" />
<rect
   height="15"
   width="17"
   id="use587"
   x="228"
   y="216"
   style="fill:#dd55ff" />
<rect
   height="15"
   width="17"
   id="use589"
   x="252"
   y="216"
   style="fill:#dd55ff" />
<rect
   height="15"
   width="17"
   id="use591"
   x="270"
   y="216"
   style="fill:#dd55ff" />
<rect
   height="15"
   width="17"
   id="use593"
   x="294"
   y="216"
   style="fill:#dd55ff" />
<rect
   height="15"
   width="17"
   id="use595"
   x="312"
   y="216"
   style="fill:#dd55ff" />
<rect
   height="15"
   width="17"
   id="use597"
   x="336"
   y="216"
   style="fill:#dd55ff" />
<rect
   height="15"
   width="17"
   id="use599"
   x="354"
   y="216"
   style="fill:#dd55ff" />
<rect
   height="15"
   width="17"
   id="use601"
   x="378"
   y="216"
   style="fill:#dd55ff" />
<rect
   height="15"
   width="17"
   id="use603"
   x="396"
   y="216"
   style="fill:#dd55ff" />
<rect
   height="15"
   width="17"
   id="use605"
   x="420"
   y="216"
   style="fill:#dd55ff" />
<rect
   height="15"
   width="17"
   id="use607"
   x="438"
   y="216"
   style="fill:#dd55ff" />
<rect
   height="15"
   width="17"
   id="use609"
   x="462"
   y="216"
   style="fill:#dd55ff" />
<rect
   height="15"
   width="17"
   id="use611"
   x="480"
   y="216"
   style="fill:#dd55ff" />
<rect
   height="15"
   width="17"
   id="use613"
   x="504"
   y="216"
   style="fill:#dd55ff" />
<rect
   height="15"
   width="17"
   id="use615"
   x="522"
   y="216"
   style="fill:#dd55ff" />
<rect
   height="15"
   width="17"
   id="use617"
   x="546"
   y="216"
   style="fill:#dd55ff" />
<rect
   height="15"
   width="17"
   id="use619"
   x="564"
   y="216"
   style="fill:#dd55ff" />
<rect
   height="15"
   width="17"
   id="use621"
   x="588"
   y="216"
   style="fill:#dd55ff" />
<rect
   height="15"
   width="17"
   id="use623"
   x="606"
   y="216"
   style="fill:#dd55ff" />
<rect
   height="15"
   width="17"
   id="use625"
   x="630"
   y="216"
   style="fill:#dd55ff" />
<rect
   height="15"
   width="17"
   id="use627"
   x="648"
   y="216"
   style="fill:#dd55ff" />
</svg>